<?xml version="1.0" encoding="iso-8859-1"?>
<!-- Uploaded to: SVG Repo, www.svgrepo.com, Generator: SVG Repo Mixer Tools -->
<svg fill="#ffffff" height="800px" width="800px" version="1.1" id="Layer_1" xmlns="http://www.w3.org/2000/svg" xmlns:xlink="http://www.w3.org/1999/xlink"
	 viewBox="0 0 512 512" xml:space="preserve">
<g transform="translate(1 1)">
	<g>
		<g>
			<path d="M54.467,377.88c4.267-2.56,5.973-7.68,3.413-11.947s-7.68-15.36-7.68-34.133c0-18.773,5.12-29.867,7.68-34.133
				s0.853-9.387-3.413-11.947c-4.267-1.707-9.387-0.853-11.947,3.413c-2.56,5.12-9.387,19.627-9.387,42.667
				c0,23.04,6.827,37.547,9.387,42.667c1.707,2.56,5.12,4.267,7.68,4.267C51.907,378.733,53.613,378.733,54.467,377.88z"/>
			<path d="M135.533,331.8c0-18.773,5.12-29.867,7.68-34.133c1.707-4.267,0.853-9.387-3.413-11.947
				c-4.267-1.707-9.387-0.853-11.947,3.413c-2.56,5.12-9.387,19.627-9.387,42.667c0,23.04,6.827,37.547,9.387,42.667
				c1.707,2.56,5.12,4.267,7.68,4.267c1.707,0,3.413,0,4.267-0.853c4.267-2.56,5.973-7.68,3.413-11.947
				S135.533,350.573,135.533,331.8z"/>
			<path d="M331.8,280.6h-51.2c-5.12,0-8.533,3.413-8.533,8.533c0,5.12,3.413,8.533,8.533,8.533h51.2
				c5.12,0,8.533-3.413,8.533-8.533C340.333,284.013,336.92,280.6,331.8,280.6z"/>
			<path d="M502.324,283.5c-4.912-12.186-11.685-22.031-19.731-28.5C499.658,241.281,511,212.362,511,178.2
				c0-15.954-2.484-30.754-6.858-43.409c-0.13-1.939-0.768-3.605-1.818-4.891c-9.067-22.493-24.472-37.033-42.524-37.033H92.867
				c-28.16,0-51.2,37.547-51.2,85.333c0,30.216,8.877,56.324,22.736,71.448c-4.486-2.06-9.241-3.182-14.202-3.182
				C21.187,246.467-1,284.013-1,331.8c0,47.787,22.187,85.333,51.2,85.333h85.333H459.8c29.013,0,51.2-37.547,51.2-85.333
				c0-15.954-2.484-30.754-6.858-43.409C504.012,286.452,503.374,284.786,502.324,283.5z M459.8,109.933
				c7.64,0,15.657,6.257,22.002,17.067H374.467h-8.533h-128c-5.12,0-8.533,3.413-8.533,8.533s3.413,8.533,8.533,8.533h128h8.533
				h114.649c2.314,7.581,3.918,16.195,4.531,25.6h-76.513c-5.12,0-8.533,3.413-8.533,8.533s3.413,8.533,8.533,8.533h76.513
				c-2.318,35.506-18.811,59.733-33.847,59.733H135.533H124.44c3.752-4.824,7.082-10.576,9.886-17.067h78.007
				c5.12,0,8.533-3.413,8.533-8.533s-3.413-8.533-8.533-8.533h-72.306c0.982-3.94,1.787-8.048,2.422-12.283
				c0.021-0.136,0.044-0.271,0.064-0.408c0.146-0.995,0.277-2.001,0.403-3.01c0.075-0.593,0.149-1.187,0.216-1.785
				c0.091-0.814,0.176-1.633,0.254-2.456c0.078-0.82,0.148-1.646,0.213-2.475c0.054-0.697,0.109-1.393,0.154-2.095
				c0.065-1.02,0.114-2.049,0.158-3.081c0.024-0.558,0.055-1.111,0.073-1.672c0.051-1.611,0.083-3.233,0.083-4.869
				c0-1.599-0.03-3.184-0.081-4.759c-0.029-0.922-0.079-1.832-0.124-2.746c-0.028-0.551-0.05-1.105-0.085-1.652
				c-0.532-8.814-1.813-17.209-3.749-24.976H203.8c5.12,0,8.533-3.413,8.533-8.533S208.92,127,203.8,127h-69.474
				c-2.805-6.491-6.134-12.243-9.886-17.067H459.8z M135.533,400.067c-0.502,0-1.006-0.028-1.511-0.081
				c-0.007-0.001-0.014-0.001-0.021-0.002c-9.597-1.032-19.567-11.654-25.915-28.544c-0.067-0.207-0.144-0.41-0.23-0.609
				c-3.964-10.791-6.456-24.079-6.456-39.03c0-40.107,17.92-68.267,34.133-68.267s34.133,28.16,34.133,68.267
				S151.747,400.067,135.533,400.067z M92.867,263.533h11.481c-4.486,5.642-8.366,12.498-11.481,20.311
				c-3.728-9.351-8.554-17.328-14.202-23.492C83.15,262.411,87.905,263.533,92.867,263.533z M92.867,109.933
				c16.213,0,34.133,28.16,34.133,68.267c0,40.107-17.92,68.267-34.133,68.267c-16.213,0-34.133-28.16-34.133-68.267
				C58.733,138.093,76.653,109.933,92.867,109.933z M16.067,331.8c0-40.107,17.92-68.267,34.133-68.267s34.133,28.16,34.133,68.267
				c0,38.766-16.742,66.365-32.502,68.168c-0.082,0.009-0.164,0.017-0.246,0.025c-0.463,0.045-0.925,0.075-1.385,0.075
				C33.987,400.067,16.067,371.907,16.067,331.8z M86.265,393.049c1.901-3.11,3.656-6.463,5.239-10.049h2.727
				c2.858,6.477,6.265,12.22,10.118,17.067H81.773C83.297,397.781,84.817,395.487,86.265,393.049z M459.8,400.067H167.107
				c3.752-4.824,7.166-10.576,10.086-17.067H255c5.12,0,8.533-3.413,8.533-8.533s-3.413-8.533-8.533-8.533h-71.793
				c2.778-10.419,4.38-21.954,4.38-34.133s-1.602-23.714-4.38-34.133h63.26c5.12,0,8.533-3.413,8.533-8.533
				c0-5.12-3.413-8.533-8.533-8.533h-69.274c-2.92-6.491-6.334-12.243-10.086-17.067H459.8c7.64,0,15.657,6.257,22.002,17.067
				H365.933c-5.12,0-8.533,3.413-8.533,8.533c0,5.12,3.413,8.533,8.533,8.533h123.182c2.314,7.581,3.918,16.195,4.531,25.6h-76.513
				c-5.12,0-8.533,3.413-8.533,8.533s3.413,8.533,8.533,8.533h76.513C491.329,375.839,474.836,400.067,459.8,400.067z"/>
			<path d="M383,331.8c0-5.12-3.413-8.533-8.533-8.533h-25.6c-5.12,0-8.533,3.413-8.533,8.533s3.413,8.533,8.533,8.533h25.6
				C379.587,340.333,383,336.92,383,331.8z"/>
			<path d="M306.2,331.8c0-5.12-3.413-8.533-8.533-8.533h-85.333c-5.12,0-8.533,3.413-8.533,8.533s3.413,8.533,8.533,8.533h85.333
				C302.787,340.333,306.2,336.92,306.2,331.8z"/>
			<path d="M451.267,365.933H383c-5.12,0-8.533,3.413-8.533,8.533S377.88,383,383,383h68.267c5.12,0,8.533-3.413,8.533-8.533
				S456.387,365.933,451.267,365.933z"/>
			<path d="M323.267,365.933H306.2c-5.12,0-8.533,3.413-8.533,8.533S301.08,383,306.2,383h17.067c5.12,0,8.533-3.413,8.533-8.533
				S328.387,365.933,323.267,365.933z"/>
			<path d="M92.867,225.133c1.707,0,3.413-0.853,4.267-0.853c4.267-2.56,5.973-7.68,3.413-11.947s-7.68-15.36-7.68-34.133
				c0-18.773,5.12-29.867,7.68-34.133s0.853-9.387-3.413-11.947c-4.267-1.707-9.387-0.853-11.947,3.413
				c-2.56,5.12-9.387,19.627-9.387,42.667c0,23.04,6.827,37.547,9.387,42.667C86.893,223.427,90.307,225.133,92.867,225.133z"/>
			<path d="M289.133,186.733h25.6c5.12,0,8.533-3.413,8.533-8.533s-3.413-8.533-8.533-8.533h-25.6c-5.12,0-8.533,3.413-8.533,8.533
				S284.013,186.733,289.133,186.733z"/>
			<path d="M161.133,178.2c0,5.12,3.413,8.533,8.533,8.533H255c5.12,0,8.533-3.413,8.533-8.533s-3.413-8.533-8.533-8.533h-85.333
				C164.547,169.667,161.133,173.08,161.133,178.2z"/>
			<path d="M348.867,186.733h25.6c5.12,0,8.533-3.413,8.533-8.533s-3.413-8.533-8.533-8.533h-25.6c-5.12,0-8.533,3.413-8.533,8.533
				S343.747,186.733,348.867,186.733z"/>
			<path d="M391.533,229.4H459.8c5.12,0,8.533-3.413,8.533-8.533s-3.413-8.533-8.533-8.533h-68.267c-5.12,0-8.533,3.413-8.533,8.533
				S386.413,229.4,391.533,229.4z"/>
			<path d="M348.867,212.333h-85.333c-5.12,0-8.533,3.413-8.533,8.533s3.413,8.533,8.533,8.533h85.333
				c5.12,0,8.533-3.413,8.533-8.533S353.987,212.333,348.867,212.333z"/>
		</g>
	</g>
</g>
</svg>