<svg xmlns="http://www.w3.org/2000/svg" xmlns:xlink="http://www.w3.org/1999/xlink" width="25"
    height="25" viewBox="0 0 25 25">
    <defs>
        <clipPath id="b">
            <rect width="25" height="25" />
        </clipPath>
    </defs>
    <g id="a" clip-path="url(#b)">
        <path
            d="M4.973,6.113V18.764a4.931,4.931,0,0,0,4.606,4.92l.324.01h8.706a2.96,2.96,0,0,1-2.79,1.971h-6.9A5.917,5.917,0,0,1,3,19.75V8.9A2.96,2.96,0,0,1,4.973,6.113ZM19.764,2a2.958,2.958,0,0,1,2.958,2.958V18.764a2.958,2.958,0,0,1-2.958,2.958H9.9a2.958,2.958,0,0,1-2.958-2.958V4.958A2.958,2.958,0,0,1,9.9,2Zm0,1.972H9.9a.986.986,0,0,0-.986.986V18.764a.986.986,0,0,0,.986.986h9.861a.986.986,0,0,0,.986-.986V4.958A.986.986,0,0,0,19.764,3.972Z"
            transform="translate(-0.361 -1.334)" fill="#007bff" />
    </g>
</svg>