<svg height="50.06" viewBox="0 0 57.83 50.06" width="57.83">
    <path style="fill:#ffffff"
        d="m11.36 1.13h-7.86c-1.28 0-2.31 1.03-2.31 2.31v7.85c0 1.28 1.03 2.31 2.31 2.31h7.85c1.28 0 2.31-1.03 2.31-2.31v-7.85c0-1.28-1.03-2.31-2.31-2.31zm43.12 3.93h-34.08c-1.28 0-2.31 1.03-2.31 2.31s1.03 2.31 2.31 2.31h34.08c1.28 0 2.31-1.03 2.31-2.31s-1.03-2.31-2.31-2.31zm-43.12 13.7h-7.86c-1.28 0-2.31 1.03-2.31 2.31v7.85c0 1.28 1.03 2.31 2.31 2.31h7.85c1.28 0 2.31-1.03 2.31-2.31v-7.85c0-1.28-1.03-2.31-2.31-2.31zm43.12 3.93h-34.08c-1.28 0-2.31 1.03-2.31 2.31s1.03 2.31 2.31 2.31h34.08c1.28 0 2.31-1.03 2.31-2.31s-1.03-2.31-2.31-2.31zm-43.12 13.7h-7.86c-1.28 0-2.31 1.03-2.31 2.31v7.85c0 1.28 1.03 2.31 2.31 2.31h7.85c1.28 0 2.31-1.03 2.31-2.31v-7.85c0-1.28-1.03-2.31-2.31-2.31zm43.12 3.92h-34.08c-1.28 0-2.31 1.03-2.31 2.31s1.03 2.31 2.31 2.31h34.08c1.28 0 2.31-1.03 2.31-2.31s-1.03-2.31-2.31-2.31z" />
</svg>